<svg id="Camada_1" data-name="Camada 1" xmlns="http://www.w3.org/2000/svg" viewBox="0 0 573.37 523.62"><defs><style>.cls-1{fill:#fff;}</style></defs><path d="M518.46,690.63c-3.47-.28-4.76-2.35-5-5a62.5,62.5,0,0,1,.13-12.31c3.1-24.95,13.8-46.76,28.44-66.78,10.61-14.5,21.66-28.69,32.31-43.17,4.26-5.8,3.64-6.39-3.39-8.11a95.92,95.92,0,0,1-44.05-23.54c-3.71-3.52-5.15-7.57-4.2-12.49a4.94,4.94,0,0,0-1.91-5.18c-29.34-26.17-56-54.94-80.64-85.48-9.57-11.84-18.26-24.38-27.76-36.28-4-5-9.48-8.89-13.55-13.89-8.05-9.87-14.65-20.62-14.93-33.94-.15-7.52,1.08-14.92,6.63-20.47,2.72-2.71,6.61-4.23,9.86-6.45a12.78,12.78,0,0,0,4-3.76c4.58-8.12,10.33-14.72,20-16.73a4,4,0,0,1,1.83-.24c6,2,10.2-.83,15-4.06,7.28-4.93,17.77-3.41,24.41,2.46,5.76,5.1,9.29,11.63,12.19,18.63a16.16,16.16,0,0,0,4,5.46c5,4.62,7,10.55,7.75,17,.61,5.58.45,11.25,1.18,16.8a16.4,16.4,0,0,0,3.13,8c17.41,20.63,37.84,38,58.91,54.75,6.65,5.28,13.46,10.37,20.11,15.64,2,1.62,4,2.39,6.49,1.2,3.73-1.79,7.15-.76,10.15,1.56,4.54,3.5,8.85,7.29,13.34,10.84a5.51,5.51,0,0,0,3.49,1.35c.63-.07,1.42-1.85,1.53-2.93,1.92-18.2,1.48-36.4-.11-54.6-.24-2.7-1.29-3.45-3.95-3.6a19.47,19.47,0,0,1-17.94-16.78c-1.32-8.56,3.33-16.49,11.94-19.82,2.15-.83,2.82-1.82,2.59-4.08-.49-4.94-1.74-9.43-4.93-13.45-2.59-3.26-4.55-7-6.8-10.53l-1.11.37c.47,6.87,1,13.74,1.37,20.62.06,1.26-.6,2.57-.93,3.85-.76-1.07-2.1-2.09-2.2-3.23-.84-9.06-1.49-18.13-2.05-27.22-.06-1,.82-2.12,1.27-3.18,1.18.49,2.83.66,3.46,1.55,2.31,3.25,4.27,6.74,6.38,10.13A3.11,3.11,0,0,0,597,325c-1.12-5.71-2.09-11.46-3.39-17.13-3-13.13-6.61-26.14-9.25-39.34-4.39-21.9,2-41.2,15.3-58.63a12.13,12.13,0,0,0,2.42-6.28c1.21-13.19,5.66-24.36,18.34-30.53,6.31-3.07,12.94-4.37,20-2.89a11.35,11.35,0,0,0,6.18-.31c15.2-6,34.57-3.38,45.49,15.71a8.14,8.14,0,0,0,3.61,3.46c20.86,8.25,32.63,24.38,39,45.06,1.61,5.21,2.14,10.74,3.31,16.1a5.45,5.45,0,0,0,1.75,2.95c8.15,6.31,9.72,11.68,6.23,21.2a4.18,4.18,0,0,0,.54,3.28c9.71,14.14,9.27,28.12-1.24,41.8-.78,1-.79,2.83-.72,4.25.26,5.05.63,10.09,1.16,15.12a6,6,0,0,0,1.6,3.68q6.59,5.53,13.55,10.61a5.09,5.09,0,0,0,3.52.49c1.7-.28,3.3-1.13,5-1.51,4.18-.93,8-.36,10.84,3.21s3.9,7.78,2.18,12.28a27.09,27.09,0,0,1-2.36,5.09,61,61,0,0,0-8.92,21.19c-1.6,8-8.19,11.75-16.5,10.29-2.68-.47-4.55-.06-6.17,2.09a104.56,104.56,0,0,1-27.17,25c-.85.55-1.26,2-1.59,3.06a9.5,9.5,0,0,0,0,2.61c0,9.46,0,8.94,9.23,8.62,7.11-.24,9.8-5.48,13.72-9.58,2-2.07,3.9-4.19,6-6.15,2.64-2.51,5.42-3.49,9.15-1.62,1.42.71,4.24.14,5.67-.88,10.72-7.66,21.4-15.4,31.8-23.48,9.23-7.18,18.22-14.7,27.08-22.34,4.44-3.83,8.23-8.41,12.54-12.41,6.07-5.63,12.4-11,18.47-16.62a5.51,5.51,0,0,0,1.28-3.81c-.33-10.2-.16-20.32,5.47-29.28a24.84,24.84,0,0,1,6.41-6.52c2.76-1.73,4.09-4.1,5.34-6.88,3.8-8.48,12.79-18.46,24.84-17.05a21.13,21.13,0,0,1,13.1,6.53,5.76,5.76,0,0,0,3.7,1.82c12.14-.34,20,4.37,24.51,15.56a11.6,11.6,0,0,0,5.68,6.32c12,6.59,16.58,20.48,11.8,35.18-4.32,13.27-12.76,23.41-24.36,30.77C924.89,389,921.33,395,917,400.3c-13.94,17-27.33,34.46-41.72,51.06-14.23,16.4-29.45,32-44.15,48a6.05,6.05,0,0,0-1.6,4.2c.68,5.85-1.44,10.52-5.37,14.58a106.84,106.84,0,0,1-47.31,28.41c-5.6,1.66-11.27,3.06-18.39,5,2.05,1.57,3.4,2.56,4.7,3.61,30.36,24.57,48.26,56.45,54.94,94.69,2.14,12.26,2.83,19.36,0,31.55-.85,2.43-.89,3.59-2.58,4.33-2.48-.11-2.62-.14-3.26-.45-3.44-2.16-4.1-2.9-5.12-3.43a13.46,13.46,0,0,1-1.4-1.33c-2.25-3-2.28-3-6.87-1.73-19.19,5.42-38.79,7.45-58.53,7.58-27,.17-54,0-80.91-1.25-18.67-.83-37.29-3.4-55.88-5.62-11.12-1.33-22.15-3.48-33.88-5.36M529.91,529.93c21.91,18.52,46.81,27.23,75.68,24.76a17.72,17.72,0,0,1-6.94,2.77,61.45,61.45,0,0,1-11.58.41c-3.55-.26-5.51.87-7.53,3.88-5.33,8-11.15,15.64-16.88,23.35-6.4,8.62-13.26,16.93-19.31,25.78C530.75,629.31,521,649.06,518,671.5c-.64,4.74-.75,9.54-1.18,15.42,6.71-1.65,12.51-2.62,18-4.51,10.39-3.57,20.51-7.94,30.91-11.49,35-11.92,71.07-16.89,107.92-17.66,34.9-.72,69.46,1.16,103.1,11.43,10.48,3.2,21.24,5.87,30.23,12.66,2.47,1.87,4.88,3.8,7.52,5.87a8.84,8.84,0,0,0,.69-1.94,85.57,85.57,0,0,0,.77-10.45c-1.87-51.44-23-92.26-66.66-120.64a21.77,21.77,0,0,1-2.86-2.67l.74-1.31,6.23,1.54c-.08-.74-.1-1.33-.22-1.91-4-20.21-10.17-39.68-20.5-57.63-2.68-4.64-5.91-9-8.79-13.49a7.18,7.18,0,0,1-.46-2.61,9.34,9.34,0,0,1,2.78.77,7.94,7.94,0,0,1,1.88,2.31c3.15,4.81,6.25,9.64,9.4,14.45,1.62,2.46,11.89,2.5,13.23,0a3.22,3.22,0,0,0,.1-2.17c-3.07-11.05-6.08-22.12-9.36-33.11-1.12-3.74-4.27-5.61-8.08-5.6-4.44,0-8.88.51-13.73.82l.77,17.12,1,.1c1.48-2.14,2.85-4.37,4.46-6.4s2.7-4.66,6-5c0,.67.06,1.1-.11,1.35q-9.63,14.52-19.29,29c-1.35,2-2.94,2.12-4.64.51a25.12,25.12,0,0,1-2.49-2.77c-7.81-10.06-15.58-20.16-23.42-30.2a16.65,16.65,0,0,0-13.9-6.9c-10.61.13-21.24-.14-31.82.47-9.15.54-18.25,2.07-27.45,3.17.22.9.2,1.19.34,1.37,8.46,11.06,15.87,22.72,20.78,35.86.33.89,2.29,1.67,3.49,1.67,8.49,0,17-.4,25.48-.28,3.16,0,4.59-.7,5.28-4,1.63-7.69,3.64-15.31,5.65-22.91a34.53,34.53,0,0,1,2.73-6.54c.28-.56,1.39-.7,2.12-1,.23.73.81,1.56.64,2.18-2.85,10.6-5.84,21.16-8.69,31.77-.76,2.79-2.35,3.74-5.17,3.65-5.24-.16-10.49-.06-15.74-.06H632c1,4.56,2.09,8.05,2.51,11.61a89.44,89.44,0,0,1,.08,10.23l-1,.2c-4.82-31.44-20.64-56.21-45.37-76.55,0,3.42.68,6.13-.11,8.29-3.57,9.71-6.71,19.71-11.56,28.76C565,495.81,550.45,515.07,529.91,529.93ZM742.12,272.86c3.37-6,2-13-3.56-16.28-2.36-1.41-3.14-3.19-3.71-5.59-1.84-7.76-3.15-15.74-6-23.14-5.06-13.28-13.36-24.45-26.26-31.1-22-11.37-44.87-12.3-68.28-4.26-3.91,1.35-5.48,3.52-5.59,7.24-.09,3.49.15,7-.1,10.48-.08,1-1.31,2-2,3a12.24,12.24,0,0,1-2.16-2.61,8.7,8.7,0,0,1-.41-3.32c0-3.41,0-6.81,0-11.46-5.65,4.18-10.45,7.68-15.19,11.26a5.82,5.82,0,0,0-2.41,6.5c.32,1.44-.74,3.19-1.18,4.79-1-1.24-1.91-2.5-2.88-3.73-.13-.17-.39-.24-.81-.49-6.28,7.51-10,16.33-12.39,25.65-3.58,13.92-1.87,27.78,1.53,41.49,2.76,11.14,5.77,22.23,8.43,33.4,1.24,5.22,1.92,10.57,2.86,15.86,1.83-6.35,3-12.73,4.71-18.94.64-2.28,2.69-4.16,4.09-6.23,1.87,1.78,4.54,3.23,5.47,5.41,2.76,6.52,5,13.3,7.06,20.07.38,1.22-.74,2.9-1.17,4.37-1-1.07-2.43-2-2.9-3.23-2.18-5.84-4.06-11.79-6.11-17.67a35.44,35.44,0,0,0-2-3.83c-.79,3.65-1.26,6.22-1.91,8.74-1.65,6.35-3.25,12.72-5.14,19-1.15,3.8.62,8.18,4.24,9.67a17.73,17.73,0,0,1,4.88,2.66c1,.9,1.51,2.48,2.24,3.76-1.44-.14-3.13.17-4.27-.48-7-4.06-13.74-3.27-18.49,2.42-4.55,5.44-4.22,14.15.74,19.59,5.39,5.91,11.75,7,19.76,3.58,1.22-.52,2.84-.08,4.28-.08-.75,1.17-1.46,2.37-2.27,3.51a3,3,0,0,1-1.21.87c-2.39,1-2.48,2.77-2.33,5.15.65,9.71,1.31,19.44,1.36,29.17,0,8.81-.69,17.63-1.09,26.6a16.86,16.86,0,0,0,2.84,0c17-2.82,34.08-2.46,51.19-1.91,7.49.24,13.94,2.53,18.77,8.54,4.14,5.15,8.46,10.18,12.47,15.43,4.23,5.53,8.18,11.26,12.54,17.28,1.92-2.75,3.39-5,5.06-7.19a11.93,11.93,0,0,0,2.51-9c-.77-9.2-.87-18.45-1.24-27.68-.07-1.81-.16-3.62-.23-5.29-.57-.11-.71-.19-.8-.15-1.38.57-2.77,1.13-4.12,1.76-11.94,5.59-24.32,8.29-37.5,5.69-14.84-2.92-27.83-9.41-36.9-21.73-14.92-20.26-11.34-49.08,7.72-65.75,13.62-11.91,30.24-13.86,47.4-13.87,6.72,0,13.48.23,20.16-.38,7.46-.68,14.4-3,19.45-9.21a12.69,12.69,0,0,0,.94-14.39c-2.33-4.07-6.64-5.79-12-4.69-7.1,1.46-14.15,3.18-21.28,4.38a7.71,7.71,0,0,0-5.84,3.74c-13.29,20-40,23.55-58.69,9.32-15.13-11.54-18.91-38-1-53.12,12.27-10.34,25.83-14.8,41.28-8.68,5.89,2.33,11.12,6.33,16.93,9.73C706.55,263.15,723.52,261.2,742.12,272.86ZM400.6,352.64a11.5,11.5,0,0,0,.45,1.69c4.3,8.85,15.91,11.8,24.46,6,4-2.74,6.27-7.25,5.05-13.09C428,335.11,420,327.83,410,322c-5-2.9-9.92-1.46-13.9,1.94-8.55,7.32-9,17.25-6.93,27.18,2.81,13.79,11.58,24.07,21.52,33.46a69.59,69.59,0,0,1,7.48,7.79c10.55,13.6,20.62,27.6,31.47,41a683.84,683.84,0,0,0,67.3,71.28c5.93,5.47,12,10.77,18,16.09,6.6-6.48,13.34-12.3,19.13-18.94a137.87,137.87,0,0,0,29.42-55c.47-1.74.77-3-1.11-4.46C565.12,429,547.81,415.88,531,402.09,516.36,390,502.51,377,490.45,362.24a14.26,14.26,0,0,1-3.65-9.85c.18-8.51-.1-17.07-3.74-25a11.84,11.84,0,0,0-5-5.57c-18.57-8.59-34.17-1.12-42.11,16.4-2.07,4.56-2.05,10.13,1.91,14.06s9.07,4.3,14.28,2.1A31.44,31.44,0,0,0,465.65,343a10.94,10.94,0,0,1,2.09-2.59,2.79,2.79,0,0,1,2.34-.15c.34.13.53,1.38.32,2a8.2,8.2,0,0,1-1.68,2.87c-4.2,4.32-8.48,8.57-13,13.15,2.2,7.8-.36,17.7-5.62,18.3,1.44-5.86,4-11.62,1.38-17.69-3.28,0-6.35.49-9.18-.14s-5.52-2.37-8.26-3.63c-2.74,8.3-7.78,12.09-17.32,12.62-11.21.62-22.42-9.25-21.07-19.84.15-1.13-.64-2.35-.77-3.55a25,25,0,0,1,.1-3.46,11.38,11.38,0,0,1,2.94,1.46c3.94,3.78,7.8,7.65,11.62,11.55a19,19,0,0,1,1.94,2.85c-1.37.14-3,.82-4.06.32A55.15,55.15,0,0,1,400.6,352.64Zm365.69,78.52c26.52,16.73,48.2,37.65,61.45,66.56.73-.67,1.11-1,1.45-1.32a1030,1030,0,0,0,91.57-107,20.31,20.31,0,0,1,5.68-5.21c12.25-7.37,21-17.55,25.67-31.11,2.52-7.29,2.68-14.65-1-21.47-3.44-6.4-11.2-13.65-19.47-9.85a62,62,0,0,0-11.08,6.88c-6.13,4.6-8.2,11.43-8.76,18.65-.47,6.18,6,11.54,13.57,11.72,6.75.16,13.2-4.35,13.82-9.68-3.22,1.43-5.74,5-10.36,3.77,5.22-4.95,9.95-9.45,14.74-13.89a1.63,1.63,0,0,1,1.61.06,1.92,1.92,0,0,1,.34,1.66c-.4,1.28-1.58,2.57-1.45,3.74,1.16,10.41-10,19.17-20.72,17.95-7.4-.84-12.64-4.83-15.35-12a17.2,17.2,0,0,1-12.43,3.87c-1-.08-2.52.25-2.93.92-2.23,3.66-4.24,7.46-6.19,11.27-.5,1-.39,2.22-.81,3.24-.25.58-1.26,1.43-1.51,1.3-.65-.33-1.57-1.15-1.52-1.71.2-2.58.24-5.33,1.21-7.67,1.35-3.26,3.46-6.21,5.34-9.45a32.62,32.62,0,0,1-14.06-14c-.74-1.34-.47-3.24-.66-4.89a20.9,20.9,0,0,1,3.59,3.13c4.29,5.89,8.48,11.84,16.05,13.94,8.3,2.3,15.55-3.89,14.52-12.41-1.85-15.32-22.1-28.74-36.8-24a16.1,16.1,0,0,0-7.52,5.72c-5.89,8.13-6.33,17.69-5.75,27.27.21,3.5-.39,6.25-2.94,8.77A730.23,730.23,0,0,1,786.34,416C779.73,421.06,773.05,426.05,766.29,431.16Zm-7.62-74.71c-5-5.62-15.74-12.64-24.78-16.47a7.35,7.35,0,0,0-6.66.17,60.71,60.71,0,0,1-27.92,5.93c-6.23-.19-12.5-.9-18.68-.47-17.6,1.22-33.1,6.74-42.16,23.38-6.3,11.56-8.85,23.6-4.73,36.71,6.13,19.48,29.48,32.82,47.15,33.22,12.29.28,23.65-3.21,34.43-8.88A92,92,0,0,0,747,402.61c-1.53-2.89-7.11-3.76-4.29-9.25,1.28,1.16,2.16,2,3.07,2.78,4.42,3.84,9.49,5.69,15.23,4,5.57-1.65,6.19-6.84,7.69-11.5a143.52,143.52,0,0,1,5.56-13.71c1.54-3.52,3.77-6.8,4.85-10.44a6.65,6.65,0,0,0-7.3-8.65,32,32,0,0,0-8.8,2.8,63.78,63.78,0,0,0-6.71,3.81l-1-.82ZM757,547.24a26.92,26.92,0,0,0,2.88-.18c22-4,41.89-12.24,58.26-27.91,9.22-8.82,9.85-11.95,4.61-23.65-7-15.69-18-28.41-30.27-40.14-10.4-9.95-22.1-17.88-35.7-22.89-2.88-1.07-5-.67-7,1.52-3,3.3-6.25,6.47-9.1,9.93-.61.74-.42,2.71.13,3.7.89,1.59,3,2.62,3.53,4.24,4.17,11.91,8.47,23.8,9.58,36.5.4,4.61.11,5.07-4.56,5.72-2.89.41-5.83.49-9.22.75A205,205,0,0,1,757,547.24ZM579.47,670.38l.08,1.29c7.49,1.23,15,2.61,22.47,3.65a760.79,760.79,0,0,0,94.87,7.41c25.73.31,51.51.69,77.09-3.07,6.55-1,13-2.52,19.52-3.8,0-.53-.09-1.06-.14-1.59C722.49,649.62,651.11,652.85,579.47,670.38Zm80-335.23c2.84-.37,5.73-.52,8.51-1.16,13.69-3.16,22.39-11.85,26.15-25.13,3.69-13.05-.91-23.88-10.73-32.61-12.16-10.81-33.68-10-46.57,1.63-7.8,7.05-12.4,15.84-11.57,26.52C626.68,322.35,640.94,334.85,659.5,335.15Zm78.79-13.66a33.85,33.85,0,0,0,11.58-20.43c2.11-12.73-5.84-25.16-19-30.14-12.71-4.82-30.46-.19-36.6,9.7-.53.85-.11,2.44.18,3.61,1.33,5.28,3.34,10.46,4,15.81.52,4.18-.61,8.56-1,13.15a43.56,43.56,0,0,0,4.83-.51c4.75-1,9.46-2.28,14.22-3.31C728.34,306.79,734,309.88,738.29,321.49Zm-330-4.84c9.71,4.57,17.83,11.07,23.36,21,2.33-7,7.21-11.65,12.09-16.29.81-.76,1.73-2.05,1.64-3-.84-9.33-9.46-18.27-18.39-17.84C419.14,300.88,410.31,308.47,408.3,316.65Zm527.12.19.85-1.14c-2.95-3.76-5.49-8-9-11.16-4.37-4-9.79-5.34-15.63-2.69-6.12,2.78-9.76,7.58-11.41,13.95a3.26,3.26,0,0,0,.6,2.4c3.57,4.81,7.23,9.55,10.92,14.4C917.62,324.85,924.94,318.51,935.42,316.84Zm-460.86-1.18a42.22,42.22,0,0,0-10.68-17.46c-4.71-4.61-10.6-5.23-16.75-4-3.55.7-6.86,2-9.26,5.57,6.18,4.06,9.57,9.91,11.65,16.91C457.72,312.71,465.87,314.46,474.56,315.66Zm420.87-1.83,12.28-15.63c-9.12-10.22-25.52-7.33-33,10.61A29.73,29.73,0,0,1,895.43,313.83ZM606.37,202.53a4.61,4.61,0,0,0,1-.28c5.85-3.55,11.72-7.07,17.5-10.73a10.27,10.27,0,0,0,2.32-2.82c2.81-3.92,5.59-7.87,8.38-11.8l2.07-2.92C623,170.79,606,183.26,606.37,202.53Zm45-29.57c1.8,1.61,3.76,2.74,4.82,4.43,3.39,5.42,8.37,6.35,14.24,6.45,5.65.09,11.29,1.17,17,1.81C684.82,175.66,664.05,165.89,651.32,173Zm5.89,10.1c-3.75-4.07-7.21-7.82-12.39-7.46-4.52.32-10.76,7.62-11.48,12.33ZM742,339.68c1.12-5.88,1-10.81-1.46-15.41l-1.41-.23c-1.62,3.88-3.25,7.77-5,11.93ZM527.34,519.75l-1.14.63,1.69,5.44,4.79-2.12Z" transform="translate(-383.93 -167.01)"/><path class="cls-1" d="M529.1,523.08l5.34,3.95-4.8,2.12c-.56-1.82-1.12-3.63-1.69-5.45Z" transform="translate(-383.93 -167.01)"/><path d="M602.74,366.49a18.26,18.26,0,0,1-1.75.57c-1.3.2-2.59.38-3.89.56.77-1.22,1.26-2.9,2.36-3.59,5.09-3.17,13,.13,13.89,5.76.16,1-.58,2.17-.9,3.26-1-.55-2.2-.89-2.83-1.7-1-1.25-1.32-3.18-3.56-2-1.94,1.06-2,2.43-1.08,4.36.4.8-.24,2.11-.41,3.18-1.07-.4-2.45-.51-3.15-1.26C599.23,373.3,599.64,370.38,602.74,366.49Z" transform="translate(-383.93 -167.01)"/><path d="M709.78,667.35a5.52,5.52,0,0,0,.62.41c4,2,4.9,3.77,3.28,6.45-1.95,3.2-6.41,3.77-9.91,1.27a5,5,0,0,1-.63-7.54,20.93,20.93,0,0,1,4.66-3.7c1-.6,2.42-.57,3.65-.82Zm-4.07,2.89-.67,2c1.59.46,3.18.93,4.79,1.28a9.89,9.89,0,0,0,.52-1.68C708.83,671.23,707.27,670.74,705.71,670.24Z" transform="translate(-383.93 -167.01)"/><path d="M654.94,302.82a5.12,5.12,0,0,1-4.78,5.17,4.92,4.92,0,0,1-5.22-4.68,5.45,5.45,0,0,1,5-5.46A5.31,5.31,0,0,1,654.94,302.82Z" transform="translate(-383.93 -167.01)"/><path d="M739.3,296.84c3.11.07,5.42,2.29,5.19,4.78-.26,2.73-1.91,4.42-4.66,4.36-2.91-.05-4.07-2.12-4.09-4.79S737.05,297,739.3,296.84Z" transform="translate(-383.93 -167.01)"/></svg>